{"title":"Paramparca S01E23-24-25 Gr Subs (Ragismenes Kardies)","uid":12788492,"size":936109692,"categoryP":"video","categoryS":"tv_shows","magnet":"?xt=urn:btih:5ae9243b352fe2075a58e6ea470eccc2499f7dca&amp;dn=Paramparca+S01E23-24-25+Gr+Subs+%28Ragismenes+Kardies%29&amp;tr=udp%3A%2F%2Ftracker.leechers-paradise.org%3A6969&amp;tr=udp%3A%2F%2Fzer0day.ch%3A1337&amp;tr=udp%3A%2F%2Fopen.demonii.com%3A1337&amp;tr=udp%3A%2F%2Ftracker.coppersurfer.tk%3A6969&amp;tr=udp%3A%2F%2Fexodus.desync.com%3A6969","seeders":0,"leechers":1,"uploader":"Aris2015","files":1,"time":1447887081,"description":"ÎœÎµÏ„Î¬ Ï„Î¿ ÎºÎ±Ï„Î­Î²Î±ÏƒÎ¼Î±, ÏƒÏ…Î½ÎµÏ‡Î¯ÏƒÏ„Îµ Î½Î± seedÎ±ÏÎµÏ„Îµ, Ï„Î¿Ï…Î»Î¬Ï‡Î¹ÏƒÏ„Î¿Î½ Î¼Î­Ï‡ÏÎ¹ Ï„Î¿ share ratio Î½Î± Î´ÎµÎ¯Î¾ÎµÎ¹ 3,00 Î•Ï„ÏƒÎ¹ Î²Î¿Î·Î¸Î¬Ï„Îµ ÎºÎ±Î¹ Ï„Î¿Ï…Ï‚ Î¬Î»Î»Î¿Ï…Ï‚, ÎºÎ±Î¹ Ï„Î± Î±ÏÏ‡ÎµÎ¯Î± Ï€Î±ÏÎ±Î¼Î­Î½Î¿Ï…Î½ ÎµÎ½ÎµÏÎ³Î¬ Î³Î¹Î± Ï€Î¿Î»Ï ÎºÎ±Î¹ÏÏŒ... \r\n\r\nÎ Î¡ÎŸÎ£ÎŸÎ§Î— : ÎœÎ•Î¤Î‘ Î¤ÎŸ Î¤Î•Î›ÎŸÎ£ Î¤ÎŸÎ¥ ÎšÎ‘Î¤Î•Î’Î‘Î£ÎœÎ‘Î¤ÎŸÎ£, ÎœÎ— Î¤ÎŸ Î”Î™Î‘Î“Î¡Î‘Î¨Î•Î¤Î• Î‘Î ÎŸ Î¤ÎŸ Î¤ÎŸÎ¡Î¡Î•ÎÎ¤. ÎšÎ¡Î‘Î¤Î©ÎÎ¤Î‘Î£ Î¤ÎŸ ÎšÎ‘Î™ SEEDÎ‘Î¡ÎŸÎÎ¤Î‘Î£, Î”Î™ÎÎ•Î¤Î• Î¤Î‘Î§Î¥Î¤Î—Î¤Î‘ Î£Î¤ÎŸÎ¥Î£ Î‘Î›Î›ÎŸÎ¥Î£!\r\n\r\nGeneral\r\nComplete name               : Paramparca S01E23-24-25 Gr Subs.avi\r\nFormat                      : AVI\r\nFormat/Info                 : Audio Video Interleave\r\nFile size                   : 893 MiB\r\nDuration                    : 2h 12mn\r\nOverall bit rate            : 939 Kbps\r\nWriting application         : Lavf52.43.0\r\n\r\nVideo\r\nID                          : 0\r\nFormat                      : AVC\r\nFormat/Info                 : Advanced Video Codec\r\nFormat profile              :   \r\nFormat settings, CABAC      : Yes\r\nFormat settings, ReFrames   : 1 frame\r\nCodec ID                    : H264\r\nDuration                    : 2h 12mn\r\nBit rate                    : 799 Kbps\r\nWidth                       : 1 024 pixels\r\nHeight                      : 576 pixels\r\nDisplay aspect ratio        : 16:9\r\nFrame rate                  : 23.976 fps\r\nColor space                 : YUV\r\nChroma subsampling          : 4:2:0\r\nBit depth                   : 8 bits\r\nScan type                   : Progressive\r\nBits/(Pixel*Frame)          : 0.056\r\nStream size                 : 760 MiB (85%)\r\n\r\nAudio\r\nID                          : 1\r\nFormat                      : MPEG Audio\r\nFormat version              : Version 1\r\nFormat profile              : Layer 3\r\nMode                        : Joint stereo\r\nMode extension              : MS Stereo\r\nCodec ID                    : 55\r\nCodec ID/Hint               : MP3\r\nDuration                    : 2h 12mn\r\nBit rate mode               : Constant\r\nBit rate                    : 128 Kbps\r\nChannel(s)                  : 2 channels\r\nSampling rate               : 44.1 KHz\r\nCompression mode            : Lossy\r\nStream size                 : 122 MiB (14%)\r\nAlignment                   : Aligned on interleaves\r\nInterleave, duration        : 26 ms (0.63 video frame)\r\nWriting library             : LAME3.98.2","torrent":{"xt":"urn:btih:5ae9243b352fe2075a58e6ea470eccc2499f7dca","amp;dn":"Paramparca+S01E23-24-25+Gr+Subs+%28Ragismenes+Kardies%29","amp;tr":["udp%3A%2F%2Ftracker.leechers-paradise.org%3A6969","udp%3A%2F%2Fzer0day.ch%3A1337","udp%3A%2F%2Fopen.demonii.com%3A1337","udp%3A%2F%2Ftracker.coppersurfer.tk%3A6969","udp%3A%2F%2Fexodus.desync.com%3A6969"],"infoHash":"5ae9243b352fe2075a58e6ea470eccc2499f7dca","infoHashBuffer":{"type":"Buffer","data":[90,233,36,59,53,47,226,7,90,88,230,234,71,14,204,194,73,159,125,202]},"announce":[],"urlList":[]}}